<?xml version="1.0" encoding="utf-8"?>
<!-- Generator: Adobe Illustrator 29.5.0, SVG Export Plug-In . SVG Version: 9.03 Build 0)  -->
<svg version="1.0" xmlns="http://www.w3.org/2000/svg" xmlns:xlink="http://www.w3.org/1999/xlink" x="0px" y="0px"
	 viewBox="0 0 50 50" style="enable-background:new 0 0 50 50;" xml:space="preserve">
<style type="text/css">
	.st0{display:none;}
	.st1{display:inline;stroke:#FFFFFF;stroke-miterlimit:10;}
	.st2{display:inline;fill:#FFFFFF;}
	.st3{fill:none;stroke:#FFFFFF;stroke-width:3;stroke-miterlimit:10;}
</style>
<g id="Layer_2" class="st0">
	<rect x="0" y="-0.9" class="st1" width="50" height="50"/>
	<path class="st2" d="M16,3C8.8,3,3,8.8,3,16v18c0,7.2,5.8,13,13,13h18c7.2,0,13-5.8,13-13V16c0-7.2-5.8-13-13-13H16z M16,5h18
		c6.1,0,11,4.9,11,11v18c0,6.1-4.9,11-11,11H16C9.9,45,5,40.1,5,34V16C5,9.9,9.9,5,16,5z M37,11c-1.1,0-2,0.9-2,2s0.9,2,2,2
		s2-0.9,2-2S38.1,11,37,11z M25,14c-6.1,0-11,4.9-11,11s4.9,11,11,11s11-4.9,11-11S31.1,14,25,14z M25,16c5,0,9,4,9,9s-4,9-9,9
		s-9-4-9-9S20,16,25,16z"/>
</g>
<g id="Layer_3">
	<path class="st3" d="M5.9,11.4h38.1c0.8,0,1.5,0.7,1.5,1.5v24c0,0.9-0.7,1.5-1.5,1.5H5.9c-0.8,0-1.5-0.7-1.5-1.5V13
		C4.4,12.1,5.1,11.4,5.9,11.4z"/>
	<polyline class="st3" points="4.8,19 25,27.8 45.2,19 	"/>
</g>
</svg>
