<?xml version="1.0" encoding="UTF-8"?>
<svg id="Layer_4" xmlns="http://www.w3.org/2000/svg" version="1.1" viewBox="0 0 24 24">
  <!-- Generator: Adobe Illustrator 29.7.0, SVG Export Plug-In . SVG Version: 2.1.1 Build 138)  -->
  <defs>
    <style>
      .st0 {
        fill: none;
      }

      .st1 {
        display: none;
        fill: #fff;
      }
    </style>
  </defs>
  <polygon class="st0" points="10.2 6.8 11.8 13.1 14 13.1 14 13.1 15.6 7.1 15.6 13.1 17.8 13.1 17.8 3.8 15 3.8 15 3.8 13 11.3 11.1 3.8 8.2 3.8 8.2 13.1 10.2 13.1 10.2 6.8"/>
  <path d="M21.6,16.9V1.2c0-.7-.6-1.2-1.2-1.2H4.3L.7,2.2v16.9l3.7-2.2h17.3ZM8.2,3.8h2.9l1.9,7.5,2-7.5h0s2.9,0,2.9,0v9.4h-2.2v-6l-1.6,6h0s-2.2,0-2.2,0l-1.7-6.3v6.3h-2V3.8Z"/>
  <path d="M22.6,3.8h0v14.1H4.6l-1.9,1.2v3.7c0,.7.5,1.2,1.2,1.2h19.4V3.8h-.7ZM18,20.6c0,.3,0,.6-.2.8v.7h-9.6v-3.5h9.6v.7c.1.2.2.5.2.7v.7Z"/>
  <path d="M10.5,21.1v-.2c0-.2-.2-.4-.5-.4h-.5v1h.4c.4,0,.6-.1.6-.4Z"/>
  <path d="M9.5,20h.4c.3,0,.5-.1.5-.3v-.2c0-.3-.2-.4-.5-.4h-.4v.9Z"/>
  <path d="M16.4,19.2h-.4v2.3h.3c.5,0,.8-.3.8-.8v-.7c0-.5-.2-.7-.7-.7Z"/>
  <path d="M17.8,19.2v-.7h-1.4c.7,0,1.2.3,1.4.7Z"/>
  <path d="M16.3,22.1h1.6v-.7c-.3.4-.8.7-1.6.7Z"/>
  <path d="M15,18.5h-2v2.9h1.5v.7h-2.4v-3.5h-2.2c.9,0,1.5.3,1.5.9v.2c0,.4-.3.5-.5.6h0c.2,0,.6.2.6.7v.2c0,.6-.6.9-1.6.9h-1.4v-3.5h-.3v3.5h6.8v-3.5Z"/>
  <path class="st1" d="M9.9,22.1c1,0,1.6-.4,1.6-.9v-.2c0-.5-.4-.7-.6-.7h0c.2,0,.5-.2.5-.6v-.2c0-.6-.6-.9-1.5-.9h-1.4v3.5h1.4ZM9.8,21.5h-.4v-1h.5c.4,0,.5.1.5.4v.2c0,.3-.2.4-.6.4ZM9.8,19.1c.3,0,.5.1.5.4v.2c0,.2-.2.3-.5.3h-.4v-.9h.4Z"/>
  <polygon class="st1" points="12 22.1 14.5 22.1 14.5 21.4 13 21.4 13 18.5 12.4 18.5 12 18.5 12 22.1"/>
  <path class="st1" d="M16.4,18.5h-1.4v3.5h1.3c.8,0,1.3-.3,1.6-.7.1-.2.2-.5.2-.8v-.7c0-.3,0-.5-.2-.7-.2-.4-.7-.7-1.4-.7ZM17.1,20.6c0,.6-.3.8-.8.8h-.3v-2.3h.4c.5,0,.7.2.7.7v.7Z"/>
</svg>