<?xml version="1.0" encoding="UTF-8"?>
<svg id="Layer_1" xmlns="http://www.w3.org/2000/svg" version="1.1" viewBox="0 0 240 234">
  <!-- Generator: Adobe Illustrator 29.7.0, SVG Export Plug-In . SVG Version: 2.1.1 Build 138)  -->
  <defs>
    <style>
      .st0 {
        display: none;
        fill: #fff;
      }
    </style>
  </defs>
  <path d="M96.8,81.1c-3.7-1.5-7.7-2.1-11.8-2-2.6,0-4.9,0-6.8,0-2,0-3.4.1-4.1.2v33.3c1.4.1,2.7.2,3.9.2h5.3c3.9,0,7.8-.5,11.5-1.6,3.2-.9,6-2.8,8.2-5.3,2.1-2.5,3.1-5.9,3.1-10.3,0-3.1-.7-6.2-2.3-8.9-1.7-2.6-4.1-4.6-7-5.7Z"/>
  <path d="M197.5,0H42.5C19,0,0,19,0,42.5v149c0,23.5,19,42.5,42.5,42.5h155c23.5,0,42.5-19,42.5-42.5V42.5c0-23.5-19-42.5-42.5-42.5ZM122.1,116.4c-4,5.6-9.6,9.8-16.1,12.2-7.2,2.6-14.9,3.9-22.5,3.8-2.4,0-4,0-5,0-1,0-2.4,0-4.3,0v31.7c0,.7-.4,1.3-1.1,1.4-.1,0-.2,0-.4,0h-19.6c-.8,0-1.1-.4-1.1-1.3V61.2c0-.8.3-1.1,1-1.1,1.7,0,3.8,0,6.1,0,2.4,0,4.9-.1,7.6-.2,2.7,0,5.6-.1,8.7-.2,3.1,0,6.1,0,9.1,0,8.2,0,15,1,20.6,3.1,5,1.7,9.6,4.5,13.4,8.2,3.2,3.2,5.7,7.1,7.3,11.4,1.5,4.2,2.3,8.5,2.3,13,0,8.6-2,15.7-6,21.3ZM188.6,102.9c0,.5-.3,1-.8,1.1h-15.3v34.5c0,3.6.6,6.3,1.9,7.8,1.2,1.6,3.5,2.3,6.8,2.3,1,0,1.9,0,2.7,0,.9,0,1.7-.1,2.6-.2.3-.1.6,0,.9,0,.3.2.4.5.4,1v13.2c0,1.2-.4,1.9-1.3,2.1-2.1.7-4.3,1.2-6.4,1.6-2.6.5-5.1.7-7.7.6-7,0-12.5-1.8-16.4-5.5-4-3.6-6-9.5-6-17.5v-39.9h-9.5c-.9,0-1.3-.5-1.3-1.4v-15.9c0-.9.5-1.3,1.4-1.3h9.5c.1-1.8.2-3.9.4-6.4.2-2.4.4-4.8.6-7.2.3-2.4.5-4.4.7-5.9.1-.3.3-.6.5-.9.2-.3.5-.5.8-.6l19.2-2.4c.4,0,.7,0,.9,0,.2.1.2.4.2.9-.2,2.5-.4,5.8-.5,10.1-.1,4.2-.2,8.3-.3,12.3h15c.6,0,1,.4,1,1.3v16.3Z"/>
  <path class="st0" d="M118.5,70.9c-3.8-3.7-8.4-6.5-13.4-8.2-5.6-2-12.5-3.1-20.6-3.1-3,0-6,0-9.1,0-3.1,0-6,.1-8.7.2-2.7,0-5.3.1-7.6.2-2.4,0-4.4,0-6.1,0s-1,.4-1,1.1v102.9c0,.9.4,1.3,1.1,1.3h19.6c.1,0,.2,0,.4,0,.7-.1,1.2-.7,1.1-1.4v-31.7c1.9,0,3.4,0,4.3,0,1,0,2.6,0,5,0,7.7,0,15.3-1.2,22.5-3.8,6.5-2.3,12.1-6.6,16.1-12.2,4-5.6,6-12.7,6-21.3,0-4.4-.7-8.8-2.3-13-1.6-4.3-4.1-8.1-7.3-11.4ZM103,106c-2.2,2.5-5,4.4-8.2,5.3-3.7,1.1-7.6,1.7-11.5,1.6h-5.3c-1.2,0-2.5,0-3.9-.2v-33.3c.8-.1,2.1-.2,4.1-.2,2,0,4.3,0,6.8,0,4-.1,8,.6,11.8,2,2.9,1.1,5.3,3.1,7,5.7,1.6,2.7,2.4,5.7,2.3,8.9,0,4.4-1,7.8-3.1,10.3Z"/>
  <path class="st0" d="M187.6,85.4h-15c.1-4,.2-8.1.3-12.3.1-4.2.3-7.6.5-10.1,0-.5,0-.8-.2-.9-.2-.1-.5-.1-.9,0l-19.2,2.4c-.3.1-.6.3-.8.6-.2.3-.4.6-.5.9-.2,1.5-.5,3.5-.7,5.9-.3,2.4-.5,4.8-.6,7.2-.2,2.4-.3,4.5-.4,6.4h-9.5c-1,0-1.4.4-1.4,1.3v15.9c0,1,.4,1.4,1.3,1.4h9.5v39.9c0,8.1,2,13.9,6,17.5,4,3.6,9.4,5.5,16.4,5.5,2.6,0,5.2-.2,7.7-.6,2.2-.4,4.3-.9,6.4-1.6.9-.2,1.3-.9,1.3-2.1v-13.2c0-.5-.1-.9-.4-1-.3-.2-.6-.2-.9,0-.9.1-1.7.2-2.6.2-.9,0-1.8,0-2.7,0-3.3,0-5.6-.8-6.8-2.3-1.2-1.6-1.9-4.2-1.9-7.8v-34.5h15.3c.5,0,.9-.6.8-1.1v-16.3c0-.9-.3-1.3-1-1.3Z"/>
</svg>