<?xml version="1.0" encoding="UTF-8"?>
<svg id="Layer_1" xmlns="http://www.w3.org/2000/svg" version="1.1" viewBox="0 0 1000 1000">
  <!-- Generator: Adobe Illustrator 29.7.0, SVG Export Plug-In . SVG Version: 2.1.1 Build 138)  -->
  <defs>
    <style>
      .st0 {
        fill: #fff;
      }

      .st1 {
        display: none;
      }
    </style>
  </defs>
  <g>
    <path d="M409.7,128.2c.8.9-5.1,10.7-5.8,12.7-8.1,25.5-9.8,56.1-7.2,82.7.6,6,6.1,20.3,5,24.9s-13.6,13.9-16.4,17.6c-13.4,17.8-19.5,37.9-16.6,60.4s43.3,65.5,64.5,69.4c13.8,2.5,10.3-15.1,9.4-15.9s-15.5-2-19.2-3.3c-6.1-2.1-18.3-8.7-23.3-12.7s-22-26.3-23-30c-1.6-6.3,11.6-30,15.7-36.2,44.7-68.3,133.4-81.4,192.7-23.2,10.1,10,31.7,39.4,33.9,53,3,18.9-25,41.4-40.7,47.1s-24.2,4.4-25.2,5.3,2.4,17.3,3.1,17.8c3.7,2.6,30.1-14.7,34.3-17.9,34.8-26.4,51.4-66.1,26.5-106.3-3.4-5.4-21.5-22.6-21.8-24.2-.9-4.5,5.4-24.6,5.9-30.7,1.7-22.3-.2-48.6-5.9-70.1s-17.2-28.6,9.3-10.3c17,11.8,34.6,31.5,46.5,48.4s10.6,20.1,11.7,20.5c5.9,2.3,7.2-6.8,10.4-11.3,17.1-24.4,37-42.8,65.9-53,54.5-19.4,120.9-2,156.7,43.4-87.7-12.1-172.3,45.1-208.2,123-7.4,16-10.5,31.5-16.4,47.5-1.9,5.3-14.2,28.2-14.1,29.8.4,5.8,7.9,3.6,10.2,4.7,3.6,1.7,42.3,24.6,37.7,28.7-.7.6-14.5-3-17.5-3-19.5.3-37.8,19.5-55.3,27.6-71.7,33.2-182.9,33.2-255.9,4.8-20.5-8-49-32.4-68.6-32.3s-15.1,4-16.4,2.9c-2.5-2.1,24.7-22.1,27-23.4s17.2-5.4,18-6c5.4-4.4-7-22.3-8.8-27.3-7.7-21.6-12.6-43.8-23.3-64.3-27.8-53.1-90.6-104.8-151.2-112.7-17.6-2.3-35.9.6-53.5-.4,56.5-65.2,164-69.9,218.3,1.5,3.4,4.5,10.1,22.5,15.9,20.1s8-15.2,9.6-17.5c10.6-15.3,27.8-35.6,42.3-47.1,1.8-1.4,22.6-15.4,23.6-14.4ZM524.2,358.4c-59.3-32-100.4,49.2-55,80.4,59.4,40.8,110-50.8,55-80.4Z"/>
    <path d="M744,446.3c35.8,23.5,67,72.5,88.4,108.9-30.4,6.6-71.6,19.4-89.7,46.9-47.1,71.7,105,85.8,142.7,97.9s9.7,1.9,9.5,6c-.6,15.9-60.1,69.8-74.4,81.5-12.8,10.5-116.2,84.3-124.5,83l-125.4-153.4c.3-1.6,19.5-20,22.5-23.9,23.9-30.5,42.9-82.1,50.3-120.1,6.5-33,3.8-93.7,21.1-119.8,19.8-29.9,53.1-24.5,79.5-7.1Z"/>
    <path d="M321.4,441.3c29.9,21.2,22.4,63.8,25.7,93.7,3.1,28,14.6,72.5,25,98.8,12.9,32.6,30.4,59.1,54.7,84.2l-125.4,152.5c-9.4.6-110.6-72-124.5-83.5-20.8-17.2-48.9-41.7-64.4-63.5-3.9-5.5-14.1-17.9-6.7-21.7s37-7.4,48.6-10.4c26.4-6.8,106.1-26,109.3-58.5,3.4-33.5-37.4-59.5-64.6-69-7-2.4-27.7-5.4-31.5-7.4s-1.8-3-1.4-5.1c.7-3.9,30.8-46.9,35.8-53.2,25.6-32.6,75.4-88.2,119.4-57Z"/>
    <path d="M479.7,530.8c-.9-1-24.7,10.3-25.6,11.3-1.7,2-5.4,19.7-8.5,26s-16.6,21.8-16.8,23.2c-1,5.6,3.6,2.7,6.5,6.5,13.5,17.7,2.1,11.4-11.3,16.5-9.8,3.8-23.6,15.1-26.6,25.3s.7,14.4-2,15c-8.6,2.2-44-126.3-43.4-137.8,1.9-2.1,10.8,8.7,12.6,9.8,26.7,16,71,5.9,98.7-4.9,6.6-2.6,34-18.9,36-18.8,3.4,0,13,9.1,16.9,11,31,15.1,84.5,30.7,116.3,13.3,2.5-1.4,9.9-9.5,10.6-9.4,4.4.8-14,71.2-15.8,77.1-1.8,5.9-20.6,60.2-24.2,59.7s-1-9.8-1.8-12.2c-3-10.2-16-23.8-26-27.9s-18-3.1-18.7-3.8c-2.1-2,6.2-12.6,8-14.6s5.3,1.7,4.8-4.7-14.5-17.7-16.8-22.2c-3.5-6.7-7.4-26.1-10.4-28.5s-10.5-3.3-13.4-4.5-8.1-8-10.6-4.4.4,13.1.8,14.3c2.3,7.3,17.6,12.7,14.5,23s-20.3,10.7-25.2,13.7-6.3,7.8-9.1,8-5.8-5.6-9.3-7.7-24-11.1-24.6-12.4c-5.5-12.1,14.5-21.1,14.5-24.4s.5-14.9,0-15.5Z"/>
    <path d="M575.6,651.7c-.7.8-12.6-7.4-17.4-8.1-7.6-1-39.8-1.1-47.1,0-4.1.7-9.4,5-12,5.2s-8.5-4.4-12.9-5.2c-8.2-1.3-50.6-.5-56.9,3.1-2.2,1.3-7.7,14.4-6.7,1.3s23.2-24.5,33.9-28.1c27.6-9.3,82.1-8,106.6,10.6,3.2,2.5,15.3,17.5,12.5,21Z"/>
    <path d="M523.2,712c9.8,11.9,21.9,11.8,1.2,22.9-16.7,9-35.9,9.7-52.3-.4-20.9-12.8-2-14.7,7.8-29.2s1.9-10.5,6.4-11.6,10.3,2.9,12.8,2.9,9.6-3.9,12.8-3,7.9,14.2,11.2,18.2Z"/>
    <path d="M530.6,662.7c2.8,3.7-12.2,4.7-15.4,5-5.3.4-47.7.5-48.5-3.5s18.5-6.3,19.5-6.4c5.9-.6,18.1,3.1,25,0,2.9,3.4,18.7,4,19.4,4.9Z"/>
    <path class="st0" d="M524.2,358.4c55,29.7,4.4,121.2-55,80.4-45.4-31.2-4.3-112.4,55-80.4ZM496.3,358.1c-4.7,2.2,0,10,4.4,6.4s.3-8.7-4.4-6.4ZM511.3,361.1c-4.7,2.2,0,10,4.4,6.4s.3-8.7-4.4-6.4ZM485.5,363.1c-1.1-1.5-8.4-1.2-7.7,3.2,1,6.5,11.2,1.9,7.7-3.2ZM528.4,369.2c-3.3-3.2-8.6.6-6.3,4.7,2.6,4.7,10.4-.6,6.3-4.7ZM468.3,371.1c-4.7,2.2,0,10,4.4,6.4s.3-8.7-4.4-6.4ZM531.8,381.1c-3.6,2.2,1.6,10.5,5.9,5.4,3.2-3.7-3.2-7.1-5.9-5.4ZM459.9,389.7c3.4,5,9.7.4,6.3-4.8s-8.5,1.7-6.3,4.8ZM540.5,395.1c-2.4-1.5-8.2,1.1-6.7,4.7,2.9,6.9,11.7-1.5,6.7-4.7ZM463.6,399c-2.1-1.4-7.8,2.1-6.5,4.9,3.1,6.4,11.4-1.6,6.5-4.9ZM533.3,410c-4.7,2.1.9,9.3,4.4,6.4s.4-8.6-4.4-6.4ZM468.5,414c-2.3-3.4-10.1.2-6.4,4.9s9.1-1,6.4-4.9ZM524.8,423.1c-3.2,1.9.7,9.9,5.4,5.9s-1.6-8.3-5.4-5.9ZM476.4,431.5c4.8-3.4,0-8.1-3.6-6.2s-1.5,9.9,3.6,6.2ZM518.5,437.7c1.7-1,1.1-8.3-3.8-6.4-6.2,2.4-1.5,9.4,3.8,6.4ZM488.4,439.6c3.6-2.1,2.9-9-4-6.5s.9,8.4,4,6.5ZM505.5,436c-2-3.1-10.2,0-6.4,4.9s8.5-1.8,6.4-4.9Z"/>
    <path class="st1" d="M528.4,369.2c4.1,4.1-3.6,9.4-6.3,4.7-2.3-4.1,3-8,6.3-4.7Z"/>
    <path class="st1" d="M524.8,423.1c3.8-2.3,10.1,2.1,5.4,5.9s-8.6-4-5.4-5.9Z"/>
    <path class="st1" d="M485.5,363.1c3.5,5-6.7,9.6-7.7,3.2s6.6-4.7,7.7-3.2Z"/>
    <path class="st1" d="M496.3,358.1c4.7-2.3,7.3,4.1,4.4,6.4-4.5,3.5-9.1-4.2-4.4-6.4Z"/>
    <path class="st1" d="M511.3,361.1c4.7-2.3,7.3,4.1,4.4,6.4-4.5,3.5-9.1-4.2-4.4-6.4Z"/>
    <path class="st1" d="M468.3,371.1c4.7-2.3,7.3,4.1,4.4,6.4-4.5,3.5-9.1-4.2-4.4-6.4Z"/>
    <path class="st1" d="M531.8,381.1c2.7-1.7,9.2,1.7,5.9,5.4-4.4,5.1-9.5-3.2-5.9-5.4Z"/>
    <path class="st1" d="M459.9,389.7c-2.2-3.2,4.1-8.2,6.3-4.8,3.4,5.2-2.9,9.8-6.3,4.8Z"/>
    <path class="st1" d="M540.5,395.1c5,3.2-3.8,11.6-6.7,4.7-1.5-3.6,4.3-6.2,6.7-4.7Z"/>
    <path class="st1" d="M476.4,431.5c-5.2,3.7-7.8-4.1-3.6-6.2s8.4,2.8,3.6,6.2Z"/>
    <path class="st1" d="M488.4,439.6c-3.2,1.9-9.2-4.7-4-6.5s7.6,4.4,4,6.5Z"/>
    <path class="st1" d="M463.6,399c5,3.3-3.4,11.3-6.5,4.9s4.4-6.3,6.5-4.9Z"/>
    <path class="st1" d="M468.5,414c2.7,3.9-3.6,8.5-6.4,4.9s4.1-8.3,6.4-4.9Z"/>
    <path class="st1" d="M533.3,410c4.8-2.2,7.3,4.1,4.4,6.4s-9.1-4.3-4.4-6.4Z"/>
    <path class="st1" d="M518.5,437.7c-5.3,3-10-3.9-3.8-6.4,4.9-1.9,5.5,5.4,3.8,6.4Z"/>
    <path class="st1" d="M505.5,436c2.1,3.1-3.8,8.4-6.4,4.9-3.8-5,4.4-8,6.4-4.9Z"/>
  </g>
  <circle cx="498.1" cy="360.6" r="4.1"/>
  <circle cx="513.5" cy="363.9" r="4.1"/>
  <circle cx="525.5" cy="371.9" r="4.1"/>
  <circle cx="534.6" cy="384.4" r="4.1"/>
  <circle cx="537.8" cy="398.5" r="4.1"/>
  <circle cx="536" cy="413.4" r="4.1"/>
  <circle cx="527.7" cy="426.2" r="4.1"/>
  <circle cx="515.5" cy="434.7" r="4.1"/>
  <circle cx="501.9" cy="438.4" r="4.1"/>
  <circle cx="486.5" cy="436.3" r="4.1"/>
  <circle cx="474.5" cy="428.7" r="4.1"/>
  <circle cx="465.2" cy="416.1" r="4.1"/>
  <circle cx="461" cy="402.5" r="4.1"/>
  <circle cx="463.3" cy="387.8" r="4.1"/>
  <circle cx="470.3" cy="374.2" r="4.1"/>
  <circle cx="482" cy="365.4" r="4.1"/>
</svg>